<svg width="21" height="21" viewBox="0 0 21 21" fill="none" xmlns="http://www.w3.org/2000/svg">
<g clip-path="url(#clip0_180_22)">
<path d="M14.875 1.75H6.125C3.70875 1.75 1.75 3.70875 1.75 6.125V14.875C1.75 17.2912 3.70875 19.25 6.125 19.25H14.875C17.2912 19.25 19.25 17.2912 19.25 14.875V6.125C19.25 3.70875 17.2912 1.75 14.875 1.75Z" stroke="white" stroke-width="1.75" stroke-linecap="round" stroke-linejoin="round"/>
<path d="M14 9.94853C14.108 10.6767 13.9836 11.4205 13.6446 12.0739C13.3055 12.7274 12.769 13.2573 12.1114 13.5882C11.4539 13.9192 10.7087 14.0344 9.98183 13.9175C9.255 13.8005 8.58356 13.4573 8.063 12.9368C7.54245 12.4162 7.19928 11.7448 7.08233 11.018C6.96537 10.2911 7.08058 9.54593 7.41155 8.88835C7.74253 8.23077 8.27243 7.6943 8.92588 7.35524C9.57933 7.01617 10.3231 6.89179 11.0513 6.99978C11.7941 7.10992 12.4818 7.45606 13.0128 7.98704C13.5437 8.51803 13.8899 9.20572 14 9.94853Z" stroke="white" stroke-width="1.75" stroke-linecap="round" stroke-linejoin="round"/>
<path d="M15.3125 5.6875H15.3213" stroke="white" stroke-width="1.75" stroke-linecap="round" stroke-linejoin="round"/>
</g>
<defs>
<clipPath id="clip0_180_22">
<rect width="21" height="21" fill="white"/>
</clipPath>
</defs>
</svg>
