<svg width="40" height="40" viewBox="0 0 40 40" fill="none" xmlns="http://www.w3.org/2000/svg">
<g clip-path="url(#clip0_1_19)">
<path fill-rule="evenodd" clip-rule="evenodd" d="M35.6717 9.38838C34.2856 7.99319 32.6364 6.88691 30.8198 6.13363C29.0031 5.38035 27.055 4.99505 25.0883 5.00005C16.8417 5.00005 10.1283 11.7117 10.125 19.9617C10.125 22.5984 10.8133 25.1717 12.1217 27.4417L10 35.1934L17.9317 33.1117C20.1257 34.306 22.5837 34.9323 25.0817 34.9334H25.0883C33.3333 34.9334 40.0467 28.2217 40.05 19.9717C40.0557 18.0059 39.6716 16.0584 38.9201 14.2418C38.1686 12.4253 37.0645 10.7757 35.6717 9.38838ZM25.0883 32.4084H25.0833C22.8559 32.4086 20.6694 31.8093 18.7533 30.6734L18.3 30.4034L13.5933 31.6384L14.8483 27.05L14.5533 26.58C13.308 24.5974 12.6487 22.303 12.6517 19.9617C12.655 13.105 18.2333 7.52671 25.0933 7.52671C26.7271 7.52308 28.3453 7.84352 29.8544 8.46947C31.3635 9.09542 32.7335 10.0145 33.885 11.1734C35.0427 12.3268 35.9603 13.6982 36.5848 15.2084C37.2093 16.7186 37.5283 18.3375 37.5233 19.9717C37.52 26.8284 31.9417 32.4084 25.0883 32.4084ZM31.91 23.0934C31.535 22.905 29.6983 22.0017 29.355 21.8767C29.0133 21.7517 28.765 21.69 28.515 22.0634C28.265 22.4367 27.5483 23.2784 27.33 23.5284C27.1117 23.7784 26.8933 23.8084 26.52 23.6217C26.1467 23.435 24.9417 23.04 23.5133 21.7667C22.4017 20.775 21.6517 19.5517 21.4333 19.1767C21.215 18.8017 21.41 18.6 21.5983 18.4134C21.7667 18.2467 21.9717 17.9767 22.1583 17.7584C22.345 17.54 22.4067 17.385 22.5317 17.135C22.6567 16.885 22.595 16.6667 22.5 16.48C22.4067 16.2917 21.6583 14.4517 21.3467 13.7034C21.045 12.9784 20.7367 13.075 20.5067 13.065C20.2685 13.0553 20.0301 13.0509 19.7917 13.0517C19.6021 13.0565 19.4156 13.1005 19.2438 13.1808C19.072 13.2611 18.9186 13.376 18.7933 13.5184C18.45 13.8934 17.485 14.7967 17.485 16.6367C17.485 18.4767 18.825 20.255 19.0117 20.505C19.1983 20.755 21.6483 24.53 25.3983 26.15C26.2917 26.535 26.9883 26.765 27.53 26.9384C28.425 27.2234 29.24 27.1817 29.885 27.0867C30.6033 26.98 32.0967 26.1834 32.4083 25.31C32.72 24.4367 32.72 23.6884 32.6267 23.5317C32.5333 23.375 32.2817 23.28 31.91 23.0934Z" fill="white"/>
</g>
<defs>
<clipPath id="clip0_1_19">
<rect width="40" height="40" fill="white"/>
</clipPath>
</defs>
</svg>
